<mxfile host="app.diagrams.net" modified="2023-08-31T10:40:30.133Z" agent="Mozilla/5.0 (Windows NT 10.0; Win64; x64) AppleWebKit/537.36 (KHTML, like Gecko) Chrome/116.0.0.0 Safari/537.36" etag="XfR7fj0Zruo5h-JcWcW_" version="21.7.1" type="github">
  <diagram name="第 1 页" id="Nc7laCv201RKckCkuLWc">
    <mxGraphModel dx="600" dy="323" grid="1" gridSize="10" guides="1" tooltips="1" connect="1" arrows="1" fold="1" page="1" pageScale="1" pageWidth="827" pageHeight="1169" math="0" shadow="0">
      <root>
        <mxCell id="0" />
        <mxCell id="1" parent="0" />
        <mxCell id="6IqZSw4WVSfgQWYe3aXY-1" value="" style="rounded=0;whiteSpace=wrap;html=1;fillColor=#d5e8d4;strokeColor=#82b366;" vertex="1" parent="1">
          <mxGeometry x="190" y="260" width="410" height="150" as="geometry" />
        </mxCell>
        <mxCell id="6IqZSw4WVSfgQWYe3aXY-2" value="前端" style="rounded=0;whiteSpace=wrap;html=1;fillColor=#ffe6cc;strokeColor=#d79b00;" vertex="1" parent="1">
          <mxGeometry x="100" y="60" width="80" height="30" as="geometry" />
        </mxCell>
        <mxCell id="6IqZSw4WVSfgQWYe3aXY-3" value="" style="rounded=0;whiteSpace=wrap;html=1;fillColor=#ffe6cc;strokeColor=#d79b00;" vertex="1" parent="1">
          <mxGeometry x="190" y="60" width="410" height="30" as="geometry" />
        </mxCell>
        <mxCell id="6IqZSw4WVSfgQWYe3aXY-4" value="vue" style="rounded=1;whiteSpace=wrap;html=1;" vertex="1" parent="1">
          <mxGeometry x="230" y="65" width="30" height="20" as="geometry" />
        </mxCell>
        <mxCell id="6IqZSw4WVSfgQWYe3aXY-5" value="vuex" style="rounded=1;whiteSpace=wrap;html=1;" vertex="1" parent="1">
          <mxGeometry x="270" y="65" width="30" height="20" as="geometry" />
        </mxCell>
        <mxCell id="6IqZSw4WVSfgQWYe3aXY-6" value="element-ui" style="rounded=1;whiteSpace=wrap;html=1;" vertex="1" parent="1">
          <mxGeometry x="313" y="65" width="60" height="20" as="geometry" />
        </mxCell>
        <mxCell id="6IqZSw4WVSfgQWYe3aXY-7" value="TinyMCE" style="rounded=1;whiteSpace=wrap;html=1;" vertex="1" parent="1">
          <mxGeometry x="385" y="65" width="60" height="20" as="geometry" />
        </mxCell>
        <mxCell id="6IqZSw4WVSfgQWYe3aXY-8" value="pdf.js" style="rounded=1;whiteSpace=wrap;html=1;" vertex="1" parent="1">
          <mxGeometry x="460" y="65" width="40" height="20" as="geometry" />
        </mxCell>
        <mxCell id="6IqZSw4WVSfgQWYe3aXY-9" value="KityFormula" style="rounded=1;whiteSpace=wrap;html=1;" vertex="1" parent="1">
          <mxGeometry x="510" y="65" width="70" height="20" as="geometry" />
        </mxCell>
        <mxCell id="6IqZSw4WVSfgQWYe3aXY-10" value="网关" style="rounded=0;whiteSpace=wrap;html=1;fillColor=#dae8fc;strokeColor=#6c8ebf;" vertex="1" parent="1">
          <mxGeometry x="100" y="100" width="80" height="30" as="geometry" />
        </mxCell>
        <mxCell id="6IqZSw4WVSfgQWYe3aXY-11" value="" style="rounded=0;whiteSpace=wrap;html=1;fillColor=#dae8fc;strokeColor=#6c8ebf;" vertex="1" parent="1">
          <mxGeometry x="190" y="100" width="410" height="30" as="geometry" />
        </mxCell>
        <mxCell id="6IqZSw4WVSfgQWYe3aXY-12" value="Nginx" style="rounded=1;whiteSpace=wrap;html=1;" vertex="1" parent="1">
          <mxGeometry x="313" y="105" width="60" height="20" as="geometry" />
        </mxCell>
        <mxCell id="6IqZSw4WVSfgQWYe3aXY-13" value="Spring GateWay" style="rounded=1;whiteSpace=wrap;html=1;" vertex="1" parent="1">
          <mxGeometry x="420" y="105" width="90" height="20" as="geometry" />
        </mxCell>
        <mxCell id="6IqZSw4WVSfgQWYe3aXY-14" value="接口层" style="rounded=0;whiteSpace=wrap;html=1;fillColor=#d5e8d4;strokeColor=#82b366;" vertex="1" parent="1">
          <mxGeometry x="100" y="140" width="80" height="30" as="geometry" />
        </mxCell>
        <mxCell id="6IqZSw4WVSfgQWYe3aXY-15" value="" style="rounded=0;whiteSpace=wrap;html=1;fillColor=#d5e8d4;strokeColor=#82b366;" vertex="1" parent="1">
          <mxGeometry x="190" y="140" width="410" height="30" as="geometry" />
        </mxCell>
        <mxCell id="6IqZSw4WVSfgQWYe3aXY-16" value="RestAPI" style="rounded=1;whiteSpace=wrap;html=1;" vertex="1" parent="1">
          <mxGeometry x="313" y="145" width="60" height="20" as="geometry" />
        </mxCell>
        <mxCell id="6IqZSw4WVSfgQWYe3aXY-17" value="WebSocket" style="rounded=1;whiteSpace=wrap;html=1;" vertex="1" parent="1">
          <mxGeometry x="420" y="145" width="90" height="20" as="geometry" />
        </mxCell>
        <mxCell id="6IqZSw4WVSfgQWYe3aXY-18" value="服务层" style="rounded=0;whiteSpace=wrap;html=1;fillColor=#e1d5e7;strokeColor=#9673a6;" vertex="1" parent="1">
          <mxGeometry x="100" y="180" width="80" height="280" as="geometry" />
        </mxCell>
        <mxCell id="6IqZSw4WVSfgQWYe3aXY-19" value="" style="rounded=0;whiteSpace=wrap;html=1;fillColor=#dae8fc;strokeColor=#6c8ebf;" vertex="1" parent="1">
          <mxGeometry x="190" y="180" width="410" height="30" as="geometry" />
        </mxCell>
        <mxCell id="6IqZSw4WVSfgQWYe3aXY-20" value="Spring Security" style="rounded=1;whiteSpace=wrap;html=1;" vertex="1" parent="1">
          <mxGeometry x="300" y="185" width="93" height="20" as="geometry" />
        </mxCell>
        <mxCell id="6IqZSw4WVSfgQWYe3aXY-21" value="JWT" style="rounded=1;whiteSpace=wrap;html=1;" vertex="1" parent="1">
          <mxGeometry x="420" y="185" width="90" height="20" as="geometry" />
        </mxCell>
        <mxCell id="6IqZSw4WVSfgQWYe3aXY-22" value="集中鉴权" style="text;html=1;strokeColor=none;fillColor=none;align=center;verticalAlign=middle;whiteSpace=wrap;rounded=0;" vertex="1" parent="1">
          <mxGeometry x="200" y="185" width="50" height="20" as="geometry" />
        </mxCell>
        <mxCell id="6IqZSw4WVSfgQWYe3aXY-23" value="" style="rounded=0;whiteSpace=wrap;html=1;fillColor=#fff2cc;strokeColor=#d6b656;" vertex="1" parent="1">
          <mxGeometry x="190" y="220" width="410" height="30" as="geometry" />
        </mxCell>
        <mxCell id="6IqZSw4WVSfgQWYe3aXY-24" value="服务保障" style="text;html=1;strokeColor=none;fillColor=none;align=center;verticalAlign=middle;whiteSpace=wrap;rounded=0;" vertex="1" parent="1">
          <mxGeometry x="200" y="225" width="50" height="20" as="geometry" />
        </mxCell>
        <mxCell id="6IqZSw4WVSfgQWYe3aXY-25" value="ELK" style="rounded=1;whiteSpace=wrap;html=1;" vertex="1" parent="1">
          <mxGeometry x="286.88" y="225" width="60" height="20" as="geometry" />
        </mxCell>
        <mxCell id="6IqZSw4WVSfgQWYe3aXY-26" value="Sentinal" style="rounded=1;whiteSpace=wrap;html=1;" vertex="1" parent="1">
          <mxGeometry x="376.25" y="225" width="60" height="20" as="geometry" />
        </mxCell>
        <mxCell id="6IqZSw4WVSfgQWYe3aXY-27" value="Nacos" style="rounded=1;whiteSpace=wrap;html=1;" vertex="1" parent="1">
          <mxGeometry x="476.88" y="225" width="60" height="20" as="geometry" />
        </mxCell>
        <mxCell id="6IqZSw4WVSfgQWYe3aXY-28" value="核心服务" style="text;html=1;strokeColor=none;fillColor=none;align=center;verticalAlign=middle;whiteSpace=wrap;rounded=0;" vertex="1" parent="1">
          <mxGeometry x="195" y="260" width="60" height="20" as="geometry" />
        </mxCell>
        <mxCell id="6IqZSw4WVSfgQWYe3aXY-29" value="" style="rounded=0;whiteSpace=wrap;html=1;fillColor=#ffe6cc;strokeColor=#d79b00;" vertex="1" parent="1">
          <mxGeometry x="190" y="430" width="410" height="30" as="geometry" />
        </mxCell>
        <mxCell id="6IqZSw4WVSfgQWYe3aXY-30" value="支持组件" style="text;html=1;strokeColor=none;fillColor=none;align=center;verticalAlign=middle;whiteSpace=wrap;rounded=0;" vertex="1" parent="1">
          <mxGeometry x="200" y="435" width="50" height="20" as="geometry" />
        </mxCell>
        <mxCell id="6IqZSw4WVSfgQWYe3aXY-33" value="" style="rounded=0;whiteSpace=wrap;html=1;fillColor=#b0e3e6;strokeColor=#0e8088;" vertex="1" parent="1">
          <mxGeometry x="190" y="470" width="410" height="70" as="geometry" />
        </mxCell>
        <mxCell id="6IqZSw4WVSfgQWYe3aXY-34" value="数据层" style="rounded=0;whiteSpace=wrap;html=1;fillColor=#b0e3e6;strokeColor=#0e8088;" vertex="1" parent="1">
          <mxGeometry x="100" y="470" width="80" height="70" as="geometry" />
        </mxCell>
        <mxCell id="6IqZSw4WVSfgQWYe3aXY-35" value="MySql" style="rounded=1;whiteSpace=wrap;html=1;" vertex="1" parent="1">
          <mxGeometry x="206.88" y="510" width="60" height="20" as="geometry" />
        </mxCell>
        <mxCell id="6IqZSw4WVSfgQWYe3aXY-36" value="Redis" style="rounded=1;whiteSpace=wrap;html=1;" vertex="1" parent="1">
          <mxGeometry x="276.88" y="510" width="60" height="20" as="geometry" />
        </mxCell>
        <mxCell id="6IqZSw4WVSfgQWYe3aXY-37" value="ES" style="rounded=1;whiteSpace=wrap;html=1;" vertex="1" parent="1">
          <mxGeometry x="346.88" y="510" width="60" height="20" as="geometry" />
        </mxCell>
        <mxCell id="6IqZSw4WVSfgQWYe3aXY-38" value="OSS" style="rounded=1;whiteSpace=wrap;html=1;" vertex="1" parent="1">
          <mxGeometry x="416.88" y="510" width="60" height="20" as="geometry" />
        </mxCell>
        <mxCell id="6IqZSw4WVSfgQWYe3aXY-39" value="RocketMq" style="rounded=1;whiteSpace=wrap;html=1;" vertex="1" parent="1">
          <mxGeometry x="486.88" y="510" width="60" height="20" as="geometry" />
        </mxCell>
        <mxCell id="6IqZSw4WVSfgQWYe3aXY-50" value="流程组件" style="rounded=1;whiteSpace=wrap;html=1;fillColor=#d80073;strokeColor=#A50040;fontColor=#ffffff;dashed=1;" vertex="1" parent="1">
          <mxGeometry x="261.25" y="435" width="77.5" height="20" as="geometry" />
        </mxCell>
        <mxCell id="6IqZSw4WVSfgQWYe3aXY-51" value="用户组件" style="rounded=1;whiteSpace=wrap;html=1;fillColor=#d80073;strokeColor=#A50040;fontColor=#ffffff;dashed=1;" vertex="1" parent="1">
          <mxGeometry x="367.5" y="435" width="77.5" height="20" as="geometry" />
        </mxCell>
        <mxCell id="6IqZSw4WVSfgQWYe3aXY-108" value="" style="rounded=1;whiteSpace=wrap;html=1;" vertex="1" parent="1">
          <mxGeometry x="270.5" y="280" width="108.75" height="120" as="geometry" />
        </mxCell>
        <mxCell id="6IqZSw4WVSfgQWYe3aXY-52" value="Mybatis" style="rounded=1;whiteSpace=wrap;html=1;" vertex="1" parent="1">
          <mxGeometry x="253" y="480" width="60" height="20" as="geometry" />
        </mxCell>
        <mxCell id="6IqZSw4WVSfgQWYe3aXY-53" value="Druid" style="rounded=1;whiteSpace=wrap;html=1;" vertex="1" parent="1">
          <mxGeometry x="385" y="480" width="60" height="20" as="geometry" />
        </mxCell>
        <mxCell id="6IqZSw4WVSfgQWYe3aXY-107" value="菜单组件" style="rounded=1;whiteSpace=wrap;html=1;fillColor=#d80073;strokeColor=#A50040;fontColor=#ffffff;dashed=1;" vertex="1" parent="1">
          <mxGeometry x="469.38" y="435" width="77.5" height="20" as="geometry" />
        </mxCell>
        <mxCell id="6IqZSw4WVSfgQWYe3aXY-31" value="结构化编辑引擎" style="rounded=1;whiteSpace=wrap;html=1;" vertex="1" parent="1">
          <mxGeometry x="281.75" y="310" width="87.5" height="20" as="geometry" />
        </mxCell>
        <mxCell id="6IqZSw4WVSfgQWYe3aXY-109" value="编辑器服务" style="text;html=1;strokeColor=none;fillColor=none;align=center;verticalAlign=middle;whiteSpace=wrap;rounded=0;fontSize=13;" vertex="1" parent="1">
          <mxGeometry x="283.62" y="280" width="83.76" height="30" as="geometry" />
        </mxCell>
        <mxCell id="6IqZSw4WVSfgQWYe3aXY-110" value="转换引擎" style="rounded=1;whiteSpace=wrap;html=1;" vertex="1" parent="1">
          <mxGeometry x="281.75" y="340" width="87.5" height="20" as="geometry" />
        </mxCell>
        <mxCell id="6IqZSw4WVSfgQWYe3aXY-111" value="模版配置引擎" style="rounded=1;whiteSpace=wrap;html=1;" vertex="1" parent="1">
          <mxGeometry x="281.75" y="367" width="87.5" height="20" as="geometry" />
        </mxCell>
        <mxCell id="6IqZSw4WVSfgQWYe3aXY-114" value="发布服务" style="rounded=1;whiteSpace=wrap;html=1;" vertex="1" parent="1">
          <mxGeometry x="412.37" y="280" width="87.5" height="20" as="geometry" />
        </mxCell>
        <mxCell id="6IqZSw4WVSfgQWYe3aXY-115" value="版本管理服务" style="rounded=1;whiteSpace=wrap;html=1;" vertex="1" parent="1">
          <mxGeometry x="414" y="340" width="87.5" height="20" as="geometry" />
        </mxCell>
        <mxCell id="6IqZSw4WVSfgQWYe3aXY-116" value="任务管理服务" style="rounded=1;whiteSpace=wrap;html=1;" vertex="1" parent="1">
          <mxGeometry x="412.5" y="310" width="87.5" height="20" as="geometry" />
        </mxCell>
        <mxCell id="6IqZSw4WVSfgQWYe3aXY-117" value="协同管理服务" style="rounded=1;whiteSpace=wrap;html=1;" vertex="1" parent="1">
          <mxGeometry x="412.37" y="370" width="87.5" height="20" as="geometry" />
        </mxCell>
      </root>
    </mxGraphModel>
  </diagram>
</mxfile>
